<?xml version="1.0" encoding="UTF-8"?>
<svg width="562px" height="562px" viewBox="0 0 562 562" version="1.1" xmlns="http://www.w3.org/2000/svg" xmlns:xlink="http://www.w3.org/1999/xlink">
    <!-- Generator: Sketch 53.2 (72643) - https://sketchapp.com -->
    <title>Group 4</title>
    <desc>Created with Sketch.</desc>
    <g id="Page-1" stroke="none" stroke-width="1" fill="none" fill-rule="evenodd">
        <g id="Group-4" transform="translate(9.000000, 8.500000)">
            <g id="avatar" transform="translate(139.000000, 86.500000)" fill="#000000" fill-rule="nonzero">
                <path d="M256.068769,320.289463 C240.563173,287.991959 212.6531,262.620398 178.822708,249.828608 L178.822708,229.404147 C195.455984,228.4854 226.819576,224.245028 245.214852,205.37537 C247.540691,202.972493 248.456931,199.509522 247.611171,196.25857 C246.765411,193.007617 244.228132,190.463394 240.986053,189.544647 C240.704133,189.473974 216.459019,181.134575 221.322137,131.380872 C223.436537,110.17901 223.084137,91.0973339 220.335418,74.7012273 C217.163818,55.9022429 210.82062,41.1316124 201.587742,30.8133728 C191.579585,19.7177317 178.540788,14.0639018 162.823752,14.0639018 C162.189432,14.0639018 161.555112,14.0639018 160.991272,14.0639018 C155.000474,8.83410918 141.891197,0 121.804402,0 C112.430564,0 102.633846,1.90816758 92.6256887,5.79517562 L92.2028088,5.93652137 C84.3090508,8.90478206 69.6492143,14.4879391 57.2447374,31.0253915 C42.7963409,50.248413 35.8893026,78.729581 36.7350623,115.620821 C37.5808221,152.582734 31.5195436,170.674989 26.3040249,179.367753 C22.0047459,186.505713 17.9169069,187.919171 16.8597072,188.201862 C13.2652281,187.919171 10.3755488,189.756665 8.54306921,192.866272 C6.64010967,196.046551 7.3449095,200.074905 9.45930899,203.184511 C10.3050688,204.456623 15.2386676,211.099873 27.1497847,217.531105 C40.7524214,224.881083 57.7380972,229.050783 77.8248923,229.898857 L77.8248923,249.333898 C44.4173805,262.055015 16.6482672,287.638595 0.931231063,320.360135 C-0.478368594,323.328396 -0.266928646,326.791367 1.42459094,329.547609 C3.18659051,332.303851 6.21722978,334 9.45930899,334 L247.540691,334 C250.78277,334 253.883889,332.303851 255.575409,329.547609 C257.266929,326.720694 257.478369,323.257723 256.068769,320.289463 Z M25.669705,314.847651 C40.8933813,291.384257 63.7288958,273.645366 90.1588893,265.093948 C94.1057684,263.821837 96.7840077,260.146847 96.7840077,256.047821 L96.7840077,220.499365 C96.7840077,217.955142 95.797288,215.481591 93.9648084,213.714769 C92.1323289,211.947948 89.7360094,210.887854 87.1987301,210.958527 C59.7820167,211.241219 43.2192208,204.951333 34.197783,199.580195 C34.8321028,198.944139 35.5369026,198.308083 36.2417025,197.601354 C50.1262591,183.113415 56.6808975,155.409649 55.7646577,115.196784 C53.9321782,40.9195937 85.4367305,28.9052052 98.8279272,23.8167584 L99.2508071,23.6754126 C107.144565,20.7071519 114.685923,19.1523487 121.663442,19.1523487 C139.847277,19.1523487 149.150635,29.1878967 149.925915,30.1066441 C151.899354,32.5801947 154.929994,33.7816335 158.101593,33.498942 C159.652152,33.3575963 161.202712,33.2869234 162.682792,33.2869234 C172.902389,33.2869234 181.007587,36.6792213 187.350786,43.7465087 C200.741982,58.5878121 206.239421,89.895895 202.292542,129.61405 C198.345663,169.685569 210.82062,189.756665 221.604057,199.509522 C207.085181,207.566229 186.434546,210.605163 170.85847,210.605163 C170.01271,210.605163 169.51935,210.605163 169.44887,210.605163 C166.911591,210.53449 164.374311,211.52391 162.541832,213.290732 C160.709352,215.057554 159.652152,217.531105 159.652152,220.146001 L159.652152,256.683876 C159.652152,260.853576 162.330392,264.457893 166.277271,265.730004 C193.059664,274.422768 215.965659,291.94964 231.118855,314.988997 L25.669705,314.988997 L25.669705,314.847651 Z" id="Shape"></path>
            </g>
            <g id="Group-3" transform="translate(0.000000, 2.500000)" stroke="#000000" stroke-linecap="square" stroke-width="20">
                <path d="M3,1 L128.0625,1" id="Line"></path>
                <path d="M-62,65 L63.0625,65" id="Line" transform="translate(1.000000, 65.000000) rotate(90.000000) translate(-1.000000, -65.000000) "></path>
            </g>
            <g id="Group-2" transform="translate(480.000000, 65.000000) rotate(90.000000) translate(-480.000000, -65.000000) translate(415.500000, 1.000000)" stroke="#000000" stroke-linecap="square" stroke-width="20">
                <path d="M3,1 L128.0625,1" id="Line"></path>
                <path d="M-62,65 L63.0625,65" id="Line" transform="translate(1.000000, 65.000000) rotate(90.000000) translate(-1.000000, -65.000000) "></path>
            </g>
            <g id="Group-3" transform="translate(64.500000, 480.500000) scale(1, -1) translate(-64.500000, -480.500000) translate(0.000000, 416.500000)" stroke="#000000" stroke-linecap="square" stroke-width="20">
                <path d="M3,1 L128.0625,1" id="Line"></path>
                <path d="M-62,65 L63.0625,65" id="Line" transform="translate(1.000000, 65.000000) rotate(90.000000) translate(-1.000000, -65.000000) "></path>
            </g>
            <g id="Group-2" transform="translate(480.000000, 479.000000) scale(1, -1) rotate(90.000000) translate(-480.000000, -479.000000) translate(415.500000, 415.000000)" stroke="#000000" stroke-linecap="square" stroke-width="20">
                <path d="M3,1 L128.0625,1" id="Line"></path>
                <path d="M-62,65 L63.0625,65" id="Line" transform="translate(1.000000, 65.000000) rotate(90.000000) translate(-1.000000, -65.000000) "></path>
            </g>
        </g>
    </g>
</svg>