<svg xmlns="http://www.w3.org/2000/svg" viewBox="0 0 629 187">
  <defs/>
  <g fill="#fff" fill-rule="nonzero">
    <path d="M623.3 60.7a46.7 46.7 0 00-35.6-18.6c-16.8 0-23.7 7.5-35.3 7.5-12 0-21.4-7.1-35.9-7.1a41.7 41.7 0 00-32.1 16 39.5 39.5 0 0126.8-10.9c14.1 0 23.3 6.9 34.9 6.9 11.3 0 18.1-7.2 34.4-7.2 12.3 0 24.8 5.8 34.1 17.5-29.4 21.3-22.9 62.5 5.6 73.7a109 109 0 01-11.3 23.9c-6.2 10.5-14.8 20.6-25.1 23.9h.2c13.7-.1 25.1-12.7 32.9-25.8 5.2-8.8 8.2-14.8 11.6-24.6-29.2-11.5-35.8-53.1-5.2-75.2zM586 .1c-9.6.7-20.7 6.6-27.6 14.5a41 41 0 0120.4-8.2 40 40 0 01-12.2 33.3A41.3 41.3 0 00586 .1z"/>
    <g>
      <path d="M76.4 147.2H60.9l-6.3-16.6H21.7l-6.3 16.6H0l29.4-79.7H47l29.4 79.7zM25.9 118h24.4L38.1 85.5 25.9 118zM95.9 139.8v30.6H82.3V90.2h13.6v7.5a23.4 23.4 0 0118.7-8.9c16.6 0 27.2 13.8 27.2 29.8 0 16.6-11.2 30.2-27.8 30.2-7.1.1-14-3.5-18.1-9zm0-31.7v21.2c3.3 4.3 8.4 7.1 14 7.1a17.6 17.6 0 000-35.2 17.6 17.6 0 00-14 6.9zM163.8 139.8v30.6h-13.6V90.2h13.6v7.5a23.4 23.4 0 0118.7-8.9c16.6 0 27.2 13.8 27.2 29.8 0 16.6-11.2 30.2-27.8 30.2-7.1.1-14-3.5-18.1-9zm0-31.7v21.2c3.3 4.3 8.4 7.1 14 7.1a17.6 17.6 0 000-35.2 17.6 17.6 0 00-14 6.9zM232.3 66.3v80.9h-13.6V66.3h13.6zM299.8 121.5h-44.7c0 9.2 6.5 16.2 18.6 16.2a30 30 0 0017.2-5.6l5.2 8.4c-6 5.5-14.7 8.3-24.2 8.3-17 0-30.8-12.5-30.8-29.4 0-17.1 13.2-31 29.7-31 18.3 0 29.2 12.2 29.2 29.1.1 1.2 0 2.8-.2 4zM271 99.6c-7.9 0-14 5-15.9 13h32.2c-1.5-7.4-7.1-13-16.3-13zM337.2 94.5c-9.8 0-16.5 6-20.2 15.5v37.1h-6v-57h6v11.4a23.2 23.2 0 0120.2-13.1v6.1zM338.5 118.7a29.7 29.7 0 0131.2-30.2c19 0 31.2 13.7 31.2 30.2a29.7 29.7 0 01-31.2 30.2c-19 0-31.2-13.7-31.2-30.2zm56.4 0a25 25 0 00-25.2-25.4 25 25 0 00-25.2 25.4c0 14 10.6 25.4 25.2 25.4a25 25 0 0025.2-25.4zM406.9 118.7a29.7 29.7 0 0131.2-30.2c19 0 31.2 13.7 31.2 30.2a29.7 29.7 0 01-31.2 30.2c-19 0-31.2-13.7-31.2-30.2zm56.4 0a25 25 0 00-25.2-25.4 25 25 0 00-25.2 25.4c0 14 10.6 25.4 25.2 25.4a25 25 0 0025.2-25.4zM519.2 147.2v-35.9c0-12.6-6.2-17.8-13.3-17.8-7.1 0-15.2 4.9-19.5 13v40.7h-6v-57h6v9.3a24.1 24.1 0 0119.8-11.1c7.4 0 14.9 3.9 17.8 12.4 4.8-8 13.2-12.4 21.1-12.4 9.9 0 19 5.9 19 22.8v35.9h-6v-35.9c0-12.6-6.2-17.8-13.3-17.8-7.1 0-15.2 4.9-19.5 13v40.7h-6.1v.1z"/>
    </g>
  </g>
</svg>