<?xml version="1.0" encoding="UTF-8"?>
<svg width="292px" height="512px" viewBox="0 0 292 512" version="1.1" xmlns="http://www.w3.org/2000/svg" xmlns:xlink="http://www.w3.org/1999/xlink">
    <!-- Generator: Sketch 53.2 (72643) - https://sketchapp.com -->
    <title>Group</title>
    <desc>Created with Sketch.</desc>
    <g id="Page-1" stroke="none" stroke-width="1" fill="none" fill-rule="evenodd">
        <g id="Group">
            <g id="smartphone" fill="#000000" fill-rule="nonzero">
                <path d="M188.667,25.6 L103.334,25.6 C98.624,25.6 94.801,29.423 94.801,34.133 C94.801,38.843 98.624,42.666 103.334,42.666 L188.667,42.666 C193.377,42.666 197.2,38.843 197.2,34.133 C197.2,29.423 193.377,25.6 188.667,25.6 Z" id="Path"></path>
                <path d="M248.4,25.6 L239.867,25.6 C235.157,25.6 231.334,29.423 231.334,34.133 C231.334,38.843 235.157,42.666 239.867,42.666 L248.4,42.666 C253.11,42.666 256.933,38.843 256.933,34.133 C256.933,29.423 253.11,25.6 248.4,25.6 Z" id="Path"></path>
                <path d="M156.598,435.2 L135.41,435.2 C122.431,435.2 111.867,445.764 111.867,458.743 L111.867,462.865 C111.867,475.844 122.431,486.4 135.402,486.4 L156.59,486.4 C169.569,486.4 180.133,475.844 180.133,462.865 L180.133,458.743 C180.133,445.764 169.569,435.2 156.598,435.2 Z M163.067,462.865 C163.067,466.432 160.166,469.333 156.599,469.333 L135.41,469.333 C131.835,469.333 128.933,466.432 128.933,462.865 L128.933,458.743 C128.933,455.168 131.834,452.266 135.41,452.266 L156.59,452.266 C160.166,452.266 163.067,455.167 163.067,458.743 L163.067,462.865 L163.067,462.865 Z" id="Shape"></path>
                <path d="M260.227,0 L31.781,0 C14.774,0 0.933,13.841 0.933,30.848 L0.933,481.152 C0.933,498.159 14.774,512 31.781,512 L260.218,512 C277.225,512 291.066,498.159 291.066,481.161 L291.066,30.848 C291.067,13.841 277.226,0 260.227,0 Z M274,481.152 C274,488.747 267.822,494.933 260.227,494.933 L31.781,494.933 C24.178,494.933 18,488.746 18,481.16 L18,30.848 C18,23.253 24.178,17.067 31.781,17.067 L260.218,17.067 C267.821,17.067 273.999,23.254 273.999,30.848 L273.999,481.152 L274,481.152 Z" id="Shape"></path>
                <path d="M282.533,51.2 L9.467,51.2 C4.757,51.2 0.934,55.023 0.934,59.733 L0.934,418.133 C0.934,422.843 4.757,426.666 9.467,426.666 L282.534,426.666 C287.244,426.666 291.067,422.843 291.067,418.133 L291.067,59.733 C291.067,55.023 287.244,51.2 282.533,51.2 Z M274,409.6 L18,409.6 L18,68.267 L274,68.267 L274,409.6 Z" id="Shape"></path>
            </g>
            <text id="“" font-family="OpenSans-Bold, Open Sans" font-size="160" font-weight="bold" letter-spacing="32" fill="#000000">
                <tspan x="103" y="329">“</tspan>
            </text>
            <path d="M33.5,86.53125 L103,196.5" id="Line-2" stroke="#000000" stroke-width="10" stroke-linecap="square"></path>
            <path d="M172.5,274.53125 L242,384.5" id="Line-2-Copy" stroke="#000000" stroke-width="10" stroke-linecap="square"></path>
        </g>
    </g>
</svg>